STARTFONT 2.1
FONT -FontForge-Bitstream Vera Sans Mono-Bold-R-Normal-SansMono--14-100-100-100-P-79-ISO10646-1
SIZE 10 100 100
FONTBOUNDINGBOX 9 17 0 -3
COMMENT "Generated by fontforge, http://fontforge.sourceforge.net"
COMMENT "Copyright (c) 2003 by Bitstream, Inc. All Rights Reserved."
STARTPROPERTIES 40
FOUNDRY "FontForge"
FAMILY_NAME "Bitstream Vera Sans Mono"
WEIGHT_NAME "Bold"
SLANT "R"
SETWIDTH_NAME "Normal"
ADD_STYLE_NAME "SansMono"
PIXEL_SIZE 14
POINT_SIZE 100
RESOLUTION_X 100
RESOLUTION_Y 100
SPACING "P"
AVERAGE_WIDTH 79
CHARSET_REGISTRY "ISO10646"
CHARSET_ENCODING "1"
FONTNAME_REGISTRY ""
CHARSET_COLLECTIONS "ISO8859-9 ISO10646-1"
FONT_NAME "BitstreamVeraSansMono-Bold"
FACE_NAME "Bitstream Vera Sans Mono Bold"
COPYRIGHT "Copyright (c) 2003 by Bitstream, Inc. All Rights Reserved."
FONT_VERSION "Release 1.10"
FONT_ASCENT 11
FONT_DESCENT 3
UNDERLINE_POSITION -2
UNDERLINE_THICKNESS 2
X_HEIGHT 7
CAP_HEIGHT 9
RAW_ASCENT 759
RAW_DESCENT 240
NORM_SPACE 8
RELATIVE_WEIGHT 70
RELATIVE_SETWIDTH 50
SUPERSCRIPT_X 0
SUPERSCRIPT_Y 4
SUPERSCRIPT_SIZE 8
SUBSCRIPT_X 0
SUBSCRIPT_Y -3
SUBSCRIPT_SIZE 8
FIGURE_WIDTH 8
AVG_LOWERCASE_WIDTH 80
AVG_UPPERCASE_WIDTH 80
ENDPROPERTIES
CHARS 269
STARTCHAR space
ENCODING 32
SWIDTH 602 0
DWIDTH 8 0
BBX 1 1 0 0
BITMAP
00
ENDCHAR
STARTCHAR exclam
ENCODING 33
SWIDTH 602 0
DWIDTH 8 0
BBX 2 10 3 0
BITMAP
C0
C0
C0
C0
C0
C0
C0
00
C0
C0
ENDCHAR
STARTCHAR quotedbl
ENCODING 34
SWIDTH 602 0
DWIDTH 8 0
BBX 6 4 1 6
BITMAP
CC
CC
CC
CC
ENDCHAR
STARTCHAR numbersign
ENCODING 35
SWIDTH 602 0
DWIDTH 8 0
BBX 8 10 0 0
BITMAP
12
12
16
7F
34
24
FE
68
48
48
ENDCHAR
STARTCHAR dollar
ENCODING 36
SWIDTH 602 0
DWIDTH 8 0
BBX 7 13 1 -2
BITMAP
10
10
7C
D4
D0
F8
3C
16
16
D6
7C
10
10
ENDCHAR
STARTCHAR percent
ENCODING 37
SWIDTH 602 0
DWIDTH 8 0
BBX 8 10 0 0
BITMAP
60
90
90
63
0C
30
C6
09
09
06
ENDCHAR
STARTCHAR ampersand
ENCODING 38
SWIDTH 602 0
DWIDTH 8 0
BBX 7 10 1 0
BITMAP
38
60
60
20
70
F6
DE
DE
CC
7E
ENDCHAR
STARTCHAR quotesingle
ENCODING 39
SWIDTH 602 0
DWIDTH 8 0
BBX 2 4 3 6
BITMAP
C0
C0
C0
C0
ENDCHAR
STARTCHAR parenleft
ENCODING 40
SWIDTH 602 0
DWIDTH 8 0
BBX 4 12 3 -1
BITMAP
30
60
60
C0
C0
C0
C0
C0
C0
60
60
30
ENDCHAR
STARTCHAR parenright
ENCODING 41
SWIDTH 602 0
DWIDTH 8 0
BBX 4 12 2 -1
BITMAP
C0
60
60
30
30
30
30
30
30
60
60
C0
ENDCHAR
STARTCHAR asterisk
ENCODING 42
SWIDTH 602 0
DWIDTH 8 0
BBX 7 6 1 4
BITMAP
10
D6
7C
7C
D6
10
ENDCHAR
STARTCHAR plus
ENCODING 43
SWIDTH 602 0
DWIDTH 8 0
BBX 8 8 0 1
BITMAP
18
18
18
FF
FF
18
18
18
ENDCHAR
STARTCHAR comma
ENCODING 44
SWIDTH 602 0
DWIDTH 8 0
BBX 3 4 2 -1
BITMAP
60
60
40
80
ENDCHAR
STARTCHAR hyphen
ENCODING 45
SWIDTH 602 0
DWIDTH 8 0
BBX 4 2 2 3
BITMAP
F0
F0
ENDCHAR
STARTCHAR period
ENCODING 46
SWIDTH 602 0
DWIDTH 8 0
BBX 2 3 3 0
BITMAP
C0
C0
C0
ENDCHAR
STARTCHAR slash
ENCODING 47
SWIDTH 602 0
DWIDTH 8 0
BBX 7 12 1 -2
BITMAP
06
0C
0C
0C
18
18
30
30
60
60
60
C0
ENDCHAR
STARTCHAR zero
ENCODING 48
SWIDTH 602 0
DWIDTH 8 0
BBX 7 10 1 0
BITMAP
38
6C
C6
C6
D6
D6
C6
C6
6C
38
ENDCHAR
STARTCHAR one
ENCODING 49
SWIDTH 602 0
DWIDTH 8 0
BBX 6 10 2 0
BITMAP
70
B0
30
30
30
30
30
30
30
FC
ENDCHAR
STARTCHAR two
ENCODING 50
SWIDTH 602 0
DWIDTH 8 0
BBX 7 10 1 0
BITMAP
7C
86
06
06
0C
1C
38
70
E0
FE
ENDCHAR
STARTCHAR three
ENCODING 51
SWIDTH 602 0
DWIDTH 8 0
BBX 7 10 1 0
BITMAP
7C
86
06
06
38
0E
06
06
8E
7C
ENDCHAR
STARTCHAR four
ENCODING 52
SWIDTH 602 0
DWIDTH 8 0
BBX 7 10 1 0
BITMAP
0C
1C
3C
6C
4C
CC
FE
0C
0C
0C
ENDCHAR
STARTCHAR five
ENCODING 53
SWIDTH 602 0
DWIDTH 8 0
BBX 7 10 1 0
BITMAP
FC
C0
C0
F8
8C
06
06
06
8C
78
ENDCHAR
STARTCHAR six
ENCODING 54
SWIDTH 602 0
DWIDTH 8 0
BBX 7 10 1 0
BITMAP
38
64
C0
FC
C6
C6
C6
C6
46
3C
ENDCHAR
STARTCHAR seven
ENCODING 55
SWIDTH 602 0
DWIDTH 8 0
BBX 7 10 1 0
BITMAP
FE
06
0E
0C
1C
18
18
30
30
60
ENDCHAR
STARTCHAR eight
ENCODING 56
SWIDTH 602 0
DWIDTH 8 0
BBX 7 10 1 0
BITMAP
7C
C6
C6
C6
38
C6
C6
C6
C6
7C
ENDCHAR
STARTCHAR nine
ENCODING 57
SWIDTH 602 0
DWIDTH 8 0
BBX 7 10 1 0
BITMAP
78
C4
C6
C6
C6
C6
7E
06
4C
38
ENDCHAR
STARTCHAR colon
ENCODING 58
SWIDTH 602 0
DWIDTH 8 0
BBX 2 7 3 0
BITMAP
C0
C0
C0
00
C0
C0
C0
ENDCHAR
STARTCHAR semicolon
ENCODING 59
SWIDTH 602 0
DWIDTH 8 0
BBX 3 8 2 -1
BITMAP
60
60
60
00
60
60
40
80
ENDCHAR
STARTCHAR less
ENCODING 60
SWIDTH 602 0
DWIDTH 8 0
BBX 7 7 1 1
BITMAP
02
1E
78
C0
78
1E
02
ENDCHAR
STARTCHAR equal
ENCODING 61
SWIDTH 602 0
DWIDTH 8 0
BBX 7 6 1 2
BITMAP
FE
FE
00
00
FE
FE
ENDCHAR
STARTCHAR greater
ENCODING 62
SWIDTH 602 0
DWIDTH 8 0
BBX 7 7 1 1
BITMAP
80
F0
3C
06
3C
F0
80
ENDCHAR
STARTCHAR question
ENCODING 63
SWIDTH 602 0
DWIDTH 8 0
BBX 6 10 2 0
BITMAP
78
8C
0C
18
30
60
60
00
60
60
ENDCHAR
STARTCHAR at
ENCODING 64
SWIDTH 602 0
DWIDTH 8 0
BBX 8 12 0 -2
BITMAP
1E
63
41
9F
B3
A1
A1
B3
9F
40
21
1F
ENDCHAR
STARTCHAR A
ENCODING 65
SWIDTH 602 0
DWIDTH 8 0
BBX 7 10 1 0
BITMAP
38
38
38
28
6C
6C
7C
6C
C6
C6
ENDCHAR
STARTCHAR B
ENCODING 66
SWIDTH 602 0
DWIDTH 8 0
BBX 7 10 1 0
BITMAP
FC
C6
C6
C6
F8
C6
C6
C6
C6
FC
ENDCHAR
STARTCHAR C
ENCODING 67
SWIDTH 602 0
DWIDTH 8 0
BBX 7 10 1 0
BITMAP
3C
62
C0
C0
C0
C0
C0
C0
62
3C
ENDCHAR
STARTCHAR D
ENCODING 68
SWIDTH 602 0
DWIDTH 8 0
BBX 7 10 1 0
BITMAP
F8
CC
C6
C6
C6
C6
C6
C6
CC
F8
ENDCHAR
STARTCHAR E
ENCODING 69
SWIDTH 602 0
DWIDTH 8 0
BBX 7 10 1 0
BITMAP
FE
C0
C0
C0
FC
C0
C0
C0
C0
FE
ENDCHAR
STARTCHAR F
ENCODING 70
SWIDTH 602 0
DWIDTH 8 0
BBX 7 10 1 0
BITMAP
FE
C0
C0
C0
FC
C0
C0
C0
C0
C0
ENDCHAR
STARTCHAR G
ENCODING 71
SWIDTH 602 0
DWIDTH 8 0
BBX 7 10 1 0
BITMAP
3C
62
C0
C0
C0
CE
C6
C6
66
3E
ENDCHAR
STARTCHAR H
ENCODING 72
SWIDTH 602 0
DWIDTH 8 0
BBX 7 10 1 0
BITMAP
C6
C6
C6
C6
FE
C6
C6
C6
C6
C6
ENDCHAR
STARTCHAR I
ENCODING 73
SWIDTH 602 0
DWIDTH 8 0
BBX 6 10 1 0
BITMAP
FC
30
30
30
30
30
30
30
30
FC
ENDCHAR
STARTCHAR J
ENCODING 74
SWIDTH 602 0
DWIDTH 8 0
BBX 7 10 1 0
BITMAP
1E
06
06
06
06
06
06
06
86
7C
ENDCHAR
STARTCHAR K
ENCODING 75
SWIDTH 602 0
DWIDTH 8 0
BBX 7 10 1 0
BITMAP
C6
CC
D8
F8
F8
F8
DC
CC
C6
C6
ENDCHAR
STARTCHAR L
ENCODING 76
SWIDTH 602 0
DWIDTH 8 0
BBX 7 10 1 0
BITMAP
C0
C0
C0
C0
C0
C0
C0
C0
C0
FE
ENDCHAR
STARTCHAR M
ENCODING 77
SWIDTH 602 0
DWIDTH 8 0
BBX 7 10 1 0
BITMAP
EE
EE
EE
EE
FE
D6
C6
C6
C6
C6
ENDCHAR
STARTCHAR N
ENCODING 78
SWIDTH 602 0
DWIDTH 8 0
BBX 7 10 1 0
BITMAP
E6
E6
E6
F6
D6
D6
DE
CE
CE
CE
ENDCHAR
STARTCHAR O
ENCODING 79
SWIDTH 602 0
DWIDTH 8 0
BBX 7 10 1 0
BITMAP
38
6C
C6
C6
C6
C6
C6
C6
6C
38
ENDCHAR
STARTCHAR P
ENCODING 80
SWIDTH 602 0
DWIDTH 8 0
BBX 7 10 1 0
BITMAP
FC
C6
C6
C6
C6
FC
C0
C0
C0
C0
ENDCHAR
STARTCHAR Q
ENCODING 81
SWIDTH 602 0
DWIDTH 8 0
BBX 7 12 1 -2
BITMAP
38
6C
C6
C6
C6
C6
C6
C6
6C
3C
0C
04
ENDCHAR
STARTCHAR R
ENCODING 82
SWIDTH 602 0
DWIDTH 8 0
BBX 8 10 1 0
BITMAP
FC
C6
C6
C6
C6
F8
CC
C6
C6
C3
ENDCHAR
STARTCHAR S
ENCODING 83
SWIDTH 602 0
DWIDTH 8 0
BBX 7 10 1 0
BITMAP
7C
C2
C0
C0
F8
3C
0E
06
86
7C
ENDCHAR
STARTCHAR T
ENCODING 84
SWIDTH 602 0
DWIDTH 8 0
BBX 8 10 0 0
BITMAP
FF
18
18
18
18
18
18
18
18
18
ENDCHAR
STARTCHAR U
ENCODING 85
SWIDTH 602 0
DWIDTH 8 0
BBX 7 10 1 0
BITMAP
C6
C6
C6
C6
C6
C6
C6
C6
C6
7C
ENDCHAR
STARTCHAR V
ENCODING 86
SWIDTH 602 0
DWIDTH 8 0
BBX 7 10 1 0
BITMAP
C6
C6
6C
6C
6C
6C
6C
28
38
38
ENDCHAR
STARTCHAR W
ENCODING 87
SWIDTH 602 0
DWIDTH 8 0
BBX 8 10 0 0
BITMAP
C3
C3
C3
DB
5B
5A
7E
66
66
66
ENDCHAR
STARTCHAR X
ENCODING 88
SWIDTH 602 0
DWIDTH 8 0
BBX 7 10 1 0
BITMAP
C6
6C
6C
38
38
38
38
6C
6C
C6
ENDCHAR
STARTCHAR Y
ENCODING 89
SWIDTH 602 0
DWIDTH 8 0
BBX 8 10 0 0
BITMAP
C3
66
66
3C
3C
18
18
18
18
18
ENDCHAR
STARTCHAR Z
ENCODING 90
SWIDTH 602 0
DWIDTH 8 0
BBX 7 10 1 0
BITMAP
FE
06
0C
1C
18
30
70
60
C0
FE
ENDCHAR
STARTCHAR bracketleft
ENCODING 91
SWIDTH 602 0
DWIDTH 8 0
BBX 4 12 3 -1
BITMAP
F0
C0
C0
C0
C0
C0
C0
C0
C0
C0
C0
F0
ENDCHAR
STARTCHAR backslash
ENCODING 92
SWIDTH 602 0
DWIDTH 8 0
BBX 7 12 1 -2
BITMAP
C0
40
60
20
30
30
18
18
08
0C
04
06
ENDCHAR
STARTCHAR bracketright
ENCODING 93
SWIDTH 602 0
DWIDTH 8 0
BBX 4 12 2 -1
BITMAP
F0
30
30
30
30
30
30
30
30
30
30
F0
ENDCHAR
STARTCHAR asciicircum
ENCODING 94
SWIDTH 602 0
DWIDTH 8 0
BBX 8 4 0 6
BITMAP
18
3C
66
C3
ENDCHAR
STARTCHAR underscore
ENCODING 95
SWIDTH 602 0
DWIDTH 8 0
BBX 8 1 0 -3
BITMAP
FF
ENDCHAR
STARTCHAR grave
ENCODING 96
SWIDTH 602 0
DWIDTH 8 0
BBX 4 3 1 9
BITMAP
C0
60
30
ENDCHAR
STARTCHAR a
ENCODING 97
SWIDTH 602 0
DWIDTH 8 0
BBX 6 8 1 0
BITMAP
38
4C
0C
7C
CC
CC
CC
7C
ENDCHAR
STARTCHAR b
ENCODING 98
SWIDTH 602 0
DWIDTH 8 0
BBX 6 11 1 0
BITMAP
C0
C0
C0
F8
CC
CC
CC
CC
CC
CC
F8
ENDCHAR
STARTCHAR c
ENCODING 99
SWIDTH 602 0
DWIDTH 8 0
BBX 6 8 1 0
BITMAP
38
64
C0
C0
C0
C0
64
38
ENDCHAR
STARTCHAR d
ENCODING 100
SWIDTH 602 0
DWIDTH 8 0
BBX 6 11 1 0
BITMAP
0C
0C
0C
7C
CC
CC
CC
CC
CC
CC
7C
ENDCHAR
STARTCHAR e
ENCODING 101
SWIDTH 602 0
DWIDTH 8 0
BBX 6 8 1 0
BITMAP
78
4C
CC
FC
C0
C0
64
78
ENDCHAR
STARTCHAR f
ENCODING 102
SWIDTH 602 0
DWIDTH 8 0
BBX 6 11 1 0
BITMAP
1C
30
30
FC
30
30
30
30
30
30
30
ENDCHAR
STARTCHAR g
ENCODING 103
SWIDTH 602 0
DWIDTH 8 0
BBX 6 11 1 -3
BITMAP
7C
CC
CC
CC
CC
CC
CC
7C
0C
0C
78
ENDCHAR
STARTCHAR h
ENCODING 104
SWIDTH 602 0
DWIDTH 8 0
BBX 6 11 1 0
BITMAP
C0
C0
C0
F8
CC
CC
CC
CC
CC
CC
CC
ENDCHAR
STARTCHAR i
ENCODING 105
SWIDTH 602 0
DWIDTH 8 0
BBX 7 11 0 0
BITMAP
18
18
00
78
18
18
18
18
18
18
FE
ENDCHAR
STARTCHAR j
ENCODING 106
SWIDTH 602 0
DWIDTH 8 0
BBX 5 14 1 -3
BITMAP
18
18
00
78
18
18
18
18
18
18
18
18
18
F0
ENDCHAR
STARTCHAR k
ENCODING 107
SWIDTH 602 0
DWIDTH 8 0
BBX 6 11 1 0
BITMAP
C0
C0
C0
C8
D8
F0
F0
F0
D8
D8
CC
ENDCHAR
STARTCHAR l
ENCODING 108
SWIDTH 602 0
DWIDTH 8 0
BBX 7 11 1 0
BITMAP
F0
30
30
30
30
30
30
30
30
30
1E
ENDCHAR
STARTCHAR m
ENCODING 109
SWIDTH 602 0
DWIDTH 8 0
BBX 8 8 0 0
BITMAP
FF
DB
DB
DB
DB
DB
DB
DB
ENDCHAR
STARTCHAR n
ENCODING 110
SWIDTH 602 0
DWIDTH 8 0
BBX 6 8 1 0
BITMAP
F8
CC
CC
CC
CC
CC
CC
CC
ENDCHAR
STARTCHAR o
ENCODING 111
SWIDTH 602 0
DWIDTH 8 0
BBX 6 8 1 0
BITMAP
78
48
CC
CC
CC
CC
48
78
ENDCHAR
STARTCHAR p
ENCODING 112
SWIDTH 602 0
DWIDTH 8 0
BBX 6 11 1 -3
BITMAP
F8
CC
CC
CC
CC
CC
CC
F8
C0
C0
C0
ENDCHAR
STARTCHAR q
ENCODING 113
SWIDTH 602 0
DWIDTH 8 0
BBX 6 11 1 -3
BITMAP
7C
CC
CC
CC
CC
CC
CC
7C
0C
0C
0C
ENDCHAR
STARTCHAR r
ENCODING 114
SWIDTH 602 0
DWIDTH 8 0
BBX 6 8 2 0
BITMAP
FC
E0
C0
C0
C0
C0
C0
C0
ENDCHAR
STARTCHAR s
ENCODING 115
SWIDTH 602 0
DWIDTH 8 0
BBX 6 8 1 0
BITMAP
78
C4
C0
F0
3C
0C
8C
78
ENDCHAR
STARTCHAR t
ENCODING 116
SWIDTH 602 0
DWIDTH 8 0
BBX 7 10 1 0
BITMAP
30
30
FE
30
30
30
30
30
30
1E
ENDCHAR
STARTCHAR u
ENCODING 117
SWIDTH 602 0
DWIDTH 8 0
BBX 6 8 1 0
BITMAP
CC
CC
CC
CC
CC
CC
CC
7C
ENDCHAR
STARTCHAR v
ENCODING 118
SWIDTH 602 0
DWIDTH 8 0
BBX 6 8 1 0
BITMAP
CC
CC
CC
48
78
78
30
30
ENDCHAR
STARTCHAR w
ENCODING 119
SWIDTH 602 0
DWIDTH 8 0
BBX 8 8 0 0
BITMAP
C3
C3
DB
5A
5A
5A
66
66
ENDCHAR
STARTCHAR x
ENCODING 120
SWIDTH 602 0
DWIDTH 8 0
BBX 6 8 1 0
BITMAP
CC
78
78
30
30
78
78
CC
ENDCHAR
STARTCHAR y
ENCODING 121
SWIDTH 602 0
DWIDTH 8 0
BBX 6 11 1 -3
BITMAP
CC
CC
58
78
78
70
30
30
30
60
E0
ENDCHAR
STARTCHAR z
ENCODING 122
SWIDTH 602 0
DWIDTH 8 0
BBX 6 8 1 0
BITMAP
FC
0C
18
38
70
60
C0
FC
ENDCHAR
STARTCHAR braceleft
ENCODING 123
SWIDTH 602 0
DWIDTH 8 0
BBX 6 13 1 -2
BITMAP
1C
30
30
30
30
30
C0
30
30
30
30
30
1C
ENDCHAR
STARTCHAR bar
ENCODING 124
SWIDTH 602 0
DWIDTH 8 0
BBX 2 14 3 -3
BITMAP
C0
C0
C0
C0
C0
C0
C0
C0
C0
C0
C0
C0
C0
C0
ENDCHAR
STARTCHAR braceright
ENCODING 125
SWIDTH 602 0
DWIDTH 8 0
BBX 6 13 1 -2
BITMAP
E0
30
30
30
30
30
0C
30
30
30
30
30
E0
ENDCHAR
STARTCHAR asciitilde
ENCODING 126
SWIDTH 602 0
DWIDTH 8 0
BBX 7 3 1 3
BITMAP
72
FE
8C
ENDCHAR
STARTCHAR nonbreakingspace
ENCODING 160
SWIDTH 602 0
DWIDTH 8 0
BBX 1 1 0 0
BITMAP
00
ENDCHAR
STARTCHAR exclamdown
ENCODING 161
SWIDTH 602 0
DWIDTH 8 0
BBX 2 10 3 0
BITMAP
C0
C0
00
C0
C0
C0
C0
C0
C0
C0
ENDCHAR
STARTCHAR cent
ENCODING 162
SWIDTH 602 0
DWIDTH 8 0
BBX 6 12 1 -2
BITMAP
10
10
38
54
D0
D0
D0
D0
54
38
10
10
ENDCHAR
STARTCHAR sterling
ENCODING 163
SWIDTH 602 0
DWIDTH 8 0
BBX 7 10 0 0
BITMAP
1C
32
30
30
7C
30
30
30
30
FE
ENDCHAR
STARTCHAR currency
ENCODING 164
SWIDTH 602 0
DWIDTH 8 0
BBX 7 7 1 1
BITMAP
84
7E
44
44
44
7C
86
ENDCHAR
STARTCHAR yen
ENCODING 165
SWIDTH 602 0
DWIDTH 8 0
BBX 8 10 0 0
BITMAP
C3
66
66
7E
FF
18
FF
18
18
18
ENDCHAR
STARTCHAR brokenbar
ENCODING 166
SWIDTH 602 0
DWIDTH 8 0
BBX 2 12 3 -2
BITMAP
C0
C0
C0
C0
C0
00
00
C0
C0
C0
C0
C0
ENDCHAR
STARTCHAR section
ENCODING 167
SWIDTH 602 0
DWIDTH 8 0
BBX 6 11 1 -1
BITMAP
78
C0
E0
78
DC
CC
EC
78
1C
0C
78
ENDCHAR
STARTCHAR dieresis
ENCODING 168
SWIDTH 602 0
DWIDTH 8 0
BBX 5 2 2 9
BITMAP
D8
D8
ENDCHAR
STARTCHAR copyright
ENCODING 169
SWIDTH 602 0
DWIDTH 8 0
BBX 8 8 0 1
BITMAP
3C
42
99
A1
A1
99
42
3C
ENDCHAR
STARTCHAR ordfeminine
ENCODING 170
SWIDTH 602 0
DWIDTH 8 0
BBX 5 8 2 2
BITMAP
70
08
08
F8
88
F8
00
78
ENDCHAR
STARTCHAR guillemotleft
ENCODING 171
SWIDTH 602 0
DWIDTH 8 0
BBX 6 6 1 1
BITMAP
24
6C
D8
D8
6C
24
ENDCHAR
STARTCHAR logicalnot
ENCODING 172
SWIDTH 602 0
DWIDTH 8 0
BBX 7 4 1 2
BITMAP
FE
FE
06
06
ENDCHAR
STARTCHAR sfthyphen
ENCODING 173
SWIDTH 602 0
DWIDTH 8 0
BBX 4 2 2 3
BITMAP
F0
F0
ENDCHAR
STARTCHAR registered
ENCODING 174
SWIDTH 602 0
DWIDTH 8 0
BBX 8 8 0 1
BITMAP
3C
42
BD
A5
B9
A5
42
3C
ENDCHAR
STARTCHAR macron
ENCODING 175
SWIDTH 602 0
DWIDTH 8 0
BBX 4 1 2 10
BITMAP
F0
ENDCHAR
STARTCHAR degree
ENCODING 176
SWIDTH 602 0
DWIDTH 8 0
BBX 5 5 2 5
BITMAP
70
88
88
88
70
ENDCHAR
STARTCHAR plusminus
ENCODING 177
SWIDTH 602 0
DWIDTH 8 0
BBX 8 8 0 0
BITMAP
18
18
FF
FF
18
18
FF
FF
ENDCHAR
STARTCHAR twosuperior
ENCODING 178
SWIDTH 602 0
DWIDTH 8 0
BBX 5 6 2 4
BITMAP
F0
08
18
30
60
F8
ENDCHAR
STARTCHAR threesuperior
ENCODING 179
SWIDTH 602 0
DWIDTH 8 0
BBX 5 6 2 4
BITMAP
F8
08
70
08
08
F0
ENDCHAR
STARTCHAR acute
ENCODING 180
SWIDTH 602 0
DWIDTH 8 0
BBX 4 3 3 9
BITMAP
30
60
C0
ENDCHAR
STARTCHAR mu
ENCODING 181
SWIDTH 602 0
DWIDTH 8 0
BBX 7 11 1 -3
BITMAP
CC
CC
CC
CC
CC
CC
CC
F6
C0
C0
C0
ENDCHAR
STARTCHAR paragraph
ENCODING 182
SWIDTH 602 0
DWIDTH 8 0
BBX 7 11 0 -1
BITMAP
3E
FA
FA
FA
7A
0A
0A
0A
0A
0A
0A
ENDCHAR
STARTCHAR periodcentered
ENCODING 183
SWIDTH 602 0
DWIDTH 8 0
BBX 2 3 3 3
BITMAP
C0
C0
C0
ENDCHAR
STARTCHAR cedilla
ENCODING 184
SWIDTH 602 0
DWIDTH 8 0
BBX 3 3 3 -3
BITMAP
40
20
E0
ENDCHAR
STARTCHAR onesuperior
ENCODING 185
SWIDTH 602 0
DWIDTH 8 0
BBX 5 6 2 4
BITMAP
E0
20
20
20
20
F8
ENDCHAR
STARTCHAR ordmasculine
ENCODING 186
SWIDTH 602 0
DWIDTH 8 0
BBX 5 8 2 2
BITMAP
70
88
88
88
88
70
00
F8
ENDCHAR
STARTCHAR guillemotright
ENCODING 187
SWIDTH 602 0
DWIDTH 8 0
BBX 6 6 1 1
BITMAP
90
D8
6C
6C
D8
90
ENDCHAR
STARTCHAR onequarter
ENCODING 188
SWIDTH 602 0
DWIDTH 8 0
BBX 8 13 0 -2
BITMAP
E0
20
20
20
20
FB
3C
C4
0C
14
34
3E
04
ENDCHAR
STARTCHAR onehalf
ENCODING 189
SWIDTH 602 0
DWIDTH 8 0
BBX 8 13 0 -2
BITMAP
E0
20
20
20
20
FB
3C
DF
01
01
02
0C
1F
ENDCHAR
STARTCHAR threequarters
ENCODING 190
SWIDTH 602 0
DWIDTH 8 0
BBX 8 13 0 -2
BITMAP
F8
08
78
08
08
FB
3C
C4
0C
14
34
3E
04
ENDCHAR
STARTCHAR questiondown
ENCODING 191
SWIDTH 602 0
DWIDTH 8 0
BBX 6 10 1 0
BITMAP
18
18
00
18
18
30
60
C0
C4
78
ENDCHAR
STARTCHAR Agrave
ENCODING 192
SWIDTH 602 0
DWIDTH 8 0
BBX 7 14 1 0
BITMAP
60
30
00
00
38
38
38
28
6C
6C
7C
6C
C6
C6
ENDCHAR
STARTCHAR Aacute
ENCODING 193
SWIDTH 602 0
DWIDTH 8 0
BBX 7 14 1 0
BITMAP
18
30
00
00
38
38
38
28
6C
6C
7C
6C
C6
C6
ENDCHAR
STARTCHAR Acircumflex
ENCODING 194
SWIDTH 602 0
DWIDTH 8 0
BBX 7 14 1 0
BITMAP
38
6C
00
00
38
38
38
28
6C
6C
7C
6C
C6
C6
ENDCHAR
STARTCHAR Atilde
ENCODING 195
SWIDTH 602 0
DWIDTH 8 0
BBX 7 14 1 0
BITMAP
74
5C
00
00
38
38
38
28
6C
6C
7C
6C
C6
C6
ENDCHAR
STARTCHAR Adieresis
ENCODING 196
SWIDTH 602 0
DWIDTH 8 0
BBX 7 14 1 0
BITMAP
6C
6C
00
00
38
38
38
28
6C
6C
7C
6C
C6
C6
ENDCHAR
STARTCHAR Aring
ENCODING 197
SWIDTH 602 0
DWIDTH 8 0
BBX 7 13 1 0
BITMAP
10
28
28
10
38
38
38
6C
6C
7C
6C
C6
C6
ENDCHAR
STARTCHAR AE
ENCODING 198
SWIDTH 602 0
DWIDTH 8 0
BBX 8 10 0 0
BITMAP
3F
3C
2C
2C
6F
6C
7C
4C
CC
CF
ENDCHAR
STARTCHAR Ccedilla
ENCODING 199
SWIDTH 602 0
DWIDTH 8 0
BBX 7 13 1 -3
BITMAP
3C
62
C0
C0
C0
C0
C0
C0
62
3C
08
04
1C
ENDCHAR
STARTCHAR Egrave
ENCODING 200
SWIDTH 602 0
DWIDTH 8 0
BBX 7 14 1 0
BITMAP
20
10
00
00
FE
C0
C0
C0
FC
C0
C0
C0
C0
FE
ENDCHAR
STARTCHAR Eacute
ENCODING 201
SWIDTH 602 0
DWIDTH 8 0
BBX 7 14 1 0
BITMAP
18
10
00
00
FE
C0
C0
C0
FC
C0
C0
C0
C0
FE
ENDCHAR
STARTCHAR Ecircumflex
ENCODING 202
SWIDTH 602 0
DWIDTH 8 0
BBX 7 14 1 0
BITMAP
38
2C
00
00
FE
C0
C0
C0
FC
C0
C0
C0
C0
FE
ENDCHAR
STARTCHAR Edieresis
ENCODING 203
SWIDTH 602 0
DWIDTH 8 0
BBX 7 14 1 0
BITMAP
6C
6C
00
00
FE
C0
C0
C0
FC
C0
C0
C0
C0
FE
ENDCHAR
STARTCHAR Igrave
ENCODING 204
SWIDTH 602 0
DWIDTH 8 0
BBX 6 14 1 0
BITMAP
60
30
00
00
FC
30
30
30
30
30
30
30
30
FC
ENDCHAR
STARTCHAR Iacute
ENCODING 205
SWIDTH 602 0
DWIDTH 8 0
BBX 6 14 1 0
BITMAP
18
30
00
00
FC
30
30
30
30
30
30
30
30
FC
ENDCHAR
STARTCHAR Icircumflex
ENCODING 206
SWIDTH 602 0
DWIDTH 8 0
BBX 6 14 1 0
BITMAP
38
6C
00
00
FC
30
30
30
30
30
30
30
30
FC
ENDCHAR
STARTCHAR Idieresis
ENCODING 207
SWIDTH 602 0
DWIDTH 8 0
BBX 6 14 1 0
BITMAP
6C
6C
00
00
FC
30
30
30
30
30
30
30
30
FC
ENDCHAR
STARTCHAR Eth
ENCODING 208
SWIDTH 602 0
DWIDTH 8 0
BBX 8 10 0 0
BITMAP
7C
66
63
63
FB
63
63
63
66
7C
ENDCHAR
STARTCHAR Ntilde
ENCODING 209
SWIDTH 602 0
DWIDTH 8 0
BBX 7 14 1 0
BITMAP
74
5C
00
00
E6
E6
E6
F6
D6
D6
DE
CE
CE
CE
ENDCHAR
STARTCHAR Ograve
ENCODING 210
SWIDTH 602 0
DWIDTH 8 0
BBX 7 14 1 0
BITMAP
60
30
00
00
38
6C
C6
C6
C6
C6
C6
C6
6C
38
ENDCHAR
STARTCHAR Oacute
ENCODING 211
SWIDTH 602 0
DWIDTH 8 0
BBX 7 14 1 0
BITMAP
18
30
00
00
38
6C
C6
C6
C6
C6
C6
C6
6C
38
ENDCHAR
STARTCHAR Ocircumflex
ENCODING 212
SWIDTH 602 0
DWIDTH 8 0
BBX 7 14 1 0
BITMAP
38
6C
00
00
38
6C
C6
C6
C6
C6
C6
C6
6C
38
ENDCHAR
STARTCHAR Otilde
ENCODING 213
SWIDTH 602 0
DWIDTH 8 0
BBX 7 14 1 0
BITMAP
74
5C
00
00
38
6C
C6
C6
C6
C6
C6
C6
6C
38
ENDCHAR
STARTCHAR Odieresis
ENCODING 214
SWIDTH 602 0
DWIDTH 8 0
BBX 7 14 1 0
BITMAP
6C
6C
00
00
38
6C
C6
C6
C6
C6
C6
C6
6C
38
ENDCHAR
STARTCHAR multiply
ENCODING 215
SWIDTH 602 0
DWIDTH 8 0
BBX 7 7 1 1
BITMAP
44
EE
7C
38
7C
EE
44
ENDCHAR
STARTCHAR Oslash
ENCODING 216
SWIDTH 602 0
DWIDTH 8 0
BBX 8 10 0 0
BITMAP
1F
37
67
67
6F
7B
73
73
76
FC
ENDCHAR
STARTCHAR Ugrave
ENCODING 217
SWIDTH 602 0
DWIDTH 8 0
BBX 7 14 1 0
BITMAP
60
30
00
00
C6
C6
C6
C6
C6
C6
C6
C6
C6
7C
ENDCHAR
STARTCHAR Uacute
ENCODING 218
SWIDTH 602 0
DWIDTH 8 0
BBX 7 14 1 0
BITMAP
18
30
00
00
C6
C6
C6
C6
C6
C6
C6
C6
C6
7C
ENDCHAR
STARTCHAR Ucircumflex
ENCODING 219
SWIDTH 602 0
DWIDTH 8 0
BBX 7 14 1 0
BITMAP
38
6C
00
00
C6
C6
C6
C6
C6
C6
C6
C6
C6
7C
ENDCHAR
STARTCHAR Udieresis
ENCODING 220
SWIDTH 602 0
DWIDTH 8 0
BBX 7 14 1 0
BITMAP
6C
6C
00
00
C6
C6
C6
C6
C6
C6
C6
C6
C6
7C
ENDCHAR
STARTCHAR Yacute
ENCODING 221
SWIDTH 602 0
DWIDTH 8 0
BBX 8 14 0 0
BITMAP
0C
18
00
00
C3
66
66
3C
3C
18
18
18
18
18
ENDCHAR
STARTCHAR Thorn
ENCODING 222
SWIDTH 602 0
DWIDTH 8 0
BBX 7 10 1 0
BITMAP
C0
C0
FC
C6
C6
C6
C6
FC
C0
C0
ENDCHAR
STARTCHAR germandbls
ENCODING 223
SWIDTH 602 0
DWIDTH 8 0
BBX 6 11 1 0
BITMAP
78
CC
CC
D8
D8
D8
D8
CC
CC
CC
D8
ENDCHAR
STARTCHAR agrave
ENCODING 224
SWIDTH 602 0
DWIDTH 8 0
BBX 6 12 1 0
BITMAP
C0
60
30
00
38
4C
0C
7C
CC
CC
CC
7C
ENDCHAR
STARTCHAR aacute
ENCODING 225
SWIDTH 602 0
DWIDTH 8 0
BBX 6 12 1 0
BITMAP
0C
18
30
00
38
4C
0C
7C
CC
CC
CC
7C
ENDCHAR
STARTCHAR acircumflex
ENCODING 226
SWIDTH 602 0
DWIDTH 8 0
BBX 6 12 1 0
BITMAP
38
28
6C
00
38
4C
0C
7C
CC
CC
CC
7C
ENDCHAR
STARTCHAR atilde
ENCODING 227
SWIDTH 602 0
DWIDTH 8 0
BBX 6 11 1 0
BITMAP
74
5C
00
38
4C
0C
7C
CC
CC
CC
7C
ENDCHAR
STARTCHAR adieresis
ENCODING 228
SWIDTH 602 0
DWIDTH 8 0
BBX 6 11 1 0
BITMAP
6C
6C
00
38
4C
0C
7C
CC
CC
CC
7C
ENDCHAR
STARTCHAR aring
ENCODING 229
SWIDTH 602 0
DWIDTH 8 0
BBX 6 13 1 0
BITMAP
30
48
48
30
00
38
4C
0C
7C
CC
CC
CC
7C
ENDCHAR
STARTCHAR ae
ENCODING 230
SWIDTH 602 0
DWIDTH 8 0
BBX 8 8 0 0
BITMAP
3E
5B
1B
7F
D8
D8
D9
7E
ENDCHAR
STARTCHAR ccedilla
ENCODING 231
SWIDTH 602 0
DWIDTH 8 0
BBX 6 11 1 -3
BITMAP
38
64
C0
C0
C0
C0
64
38
08
08
38
ENDCHAR
STARTCHAR egrave
ENCODING 232
SWIDTH 602 0
DWIDTH 8 0
BBX 6 12 1 0
BITMAP
60
20
30
00
78
4C
CC
FC
C0
C0
64
78
ENDCHAR
STARTCHAR eacute
ENCODING 233
SWIDTH 602 0
DWIDTH 8 0
BBX 6 12 1 0
BITMAP
0C
18
10
00
78
4C
CC
FC
C0
C0
64
78
ENDCHAR
STARTCHAR ecircumflex
ENCODING 234
SWIDTH 602 0
DWIDTH 8 0
BBX 6 12 1 0
BITMAP
18
38
24
00
78
4C
CC
FC
C0
C0
64
78
ENDCHAR
STARTCHAR edieresis
ENCODING 235
SWIDTH 602 0
DWIDTH 8 0
BBX 6 11 1 0
BITMAP
6C
6C
00
78
4C
CC
FC
C0
C0
64
78
ENDCHAR
STARTCHAR igrave
ENCODING 236
SWIDTH 602 0
DWIDTH 8 0
BBX 7 12 0 0
BITMAP
60
30
18
00
78
18
18
18
18
18
18
FE
ENDCHAR
STARTCHAR iacute
ENCODING 237
SWIDTH 602 0
DWIDTH 8 0
BBX 7 12 0 0
BITMAP
06
0C
18
00
78
18
18
18
18
18
18
FE
ENDCHAR
STARTCHAR icircumflex
ENCODING 238
SWIDTH 602 0
DWIDTH 8 0
BBX 7 12 0 0
BITMAP
1C
14
36
00
78
18
18
18
18
18
18
FE
ENDCHAR
STARTCHAR idieresis
ENCODING 239
SWIDTH 602 0
DWIDTH 8 0
BBX 7 11 0 0
BITMAP
36
36
00
78
18
18
18
18
18
18
FE
ENDCHAR
STARTCHAR eth
ENCODING 240
SWIDTH 602 0
DWIDTH 8 0
BBX 6 11 1 0
BITMAP
68
30
70
18
78
CC
CC
CC
CC
CC
78
ENDCHAR
STARTCHAR ntilde
ENCODING 241
SWIDTH 602 0
DWIDTH 8 0
BBX 6 11 1 0
BITMAP
74
5C
00
F8
CC
CC
CC
CC
CC
CC
CC
ENDCHAR
STARTCHAR ograve
ENCODING 242
SWIDTH 602 0
DWIDTH 8 0
BBX 6 11 1 0
BITMAP
60
30
00
78
48
CC
CC
CC
CC
48
78
ENDCHAR
STARTCHAR oacute
ENCODING 243
SWIDTH 602 0
DWIDTH 8 0
BBX 6 11 1 0
BITMAP
18
30
00
78
48
CC
CC
CC
CC
48
78
ENDCHAR
STARTCHAR ocircumflex
ENCODING 244
SWIDTH 602 0
DWIDTH 8 0
BBX 6 11 1 0
BITMAP
38
4C
00
78
48
CC
CC
CC
CC
48
78
ENDCHAR
STARTCHAR otilde
ENCODING 245
SWIDTH 602 0
DWIDTH 8 0
BBX 6 11 1 0
BITMAP
6C
5C
00
78
48
CC
CC
CC
CC
48
78
ENDCHAR
STARTCHAR odieresis
ENCODING 246
SWIDTH 602 0
DWIDTH 8 0
BBX 6 11 1 0
BITMAP
6C
6C
00
78
48
CC
CC
CC
CC
48
78
ENDCHAR
STARTCHAR divide
ENCODING 247
SWIDTH 602 0
DWIDTH 8 0
BBX 8 8 0 1
BITMAP
18
18
00
FF
FF
00
18
18
ENDCHAR
STARTCHAR oslash
ENCODING 248
SWIDTH 602 0
DWIDTH 8 0
BBX 6 10 1 -1
BITMAP
04
7C
4C
DC
DC
EC
EC
C8
F8
80
ENDCHAR
STARTCHAR ugrave
ENCODING 249
SWIDTH 602 0
DWIDTH 8 0
BBX 6 12 1 0
BITMAP
C0
60
30
00
CC
CC
CC
CC
CC
CC
CC
7C
ENDCHAR
STARTCHAR uacute
ENCODING 250
SWIDTH 602 0
DWIDTH 8 0
BBX 6 12 1 0
BITMAP
0C
18
30
00
CC
CC
CC
CC
CC
CC
CC
7C
ENDCHAR
STARTCHAR ucircumflex
ENCODING 251
SWIDTH 602 0
DWIDTH 8 0
BBX 6 12 1 0
BITMAP
38
28
6C
00
CC
CC
CC
CC
CC
CC
CC
7C
ENDCHAR
STARTCHAR udieresis
ENCODING 252
SWIDTH 602 0
DWIDTH 8 0
BBX 6 11 1 0
BITMAP
6C
6C
00
CC
CC
CC
CC
CC
CC
CC
7C
ENDCHAR
STARTCHAR yacute
ENCODING 253
SWIDTH 602 0
DWIDTH 8 0
BBX 6 15 1 -3
BITMAP
0C
18
30
00
CC
CC
58
78
78
70
30
30
30
60
E0
ENDCHAR
STARTCHAR thorn
ENCODING 254
SWIDTH 602 0
DWIDTH 8 0
BBX 6 14 1 -3
BITMAP
C0
C0
C0
F8
CC
CC
CC
CC
CC
CC
F8
C0
C0
C0
ENDCHAR
STARTCHAR ydieresis
ENCODING 255
SWIDTH 602 0
DWIDTH 8 0
BBX 6 14 1 -3
BITMAP
6C
6C
00
CC
CC
58
78
78
70
30
30
30
60
E0
ENDCHAR
STARTCHAR Cacute
ENCODING 262
SWIDTH 602 0
DWIDTH 8 0
BBX 7 14 1 0
BITMAP
08
18
00
00
3C
62
C0
C0
C0
C0
C0
C0
62
3C
ENDCHAR
STARTCHAR cacute
ENCODING 263
SWIDTH 602 0
DWIDTH 8 0
BBX 6 12 1 0
BITMAP
0C
08
18
00
38
64
C0
C0
C0
C0
64
38
ENDCHAR
STARTCHAR Ccaron
ENCODING 268
SWIDTH 602 0
DWIDTH 8 0
BBX 7 14 1 0
BITMAP
36
1C
00
00
3C
62
C0
C0
C0
C0
C0
C0
62
3C
ENDCHAR
STARTCHAR ccaron
ENCODING 269
SWIDTH 602 0
DWIDTH 8 0
BBX 6 12 1 0
BITMAP
24
1C
18
00
38
64
C0
C0
C0
C0
64
38
ENDCHAR
STARTCHAR dcroat
ENCODING 273
SWIDTH 602 0
DWIDTH 8 0
BBX 7 11 1 0
BITMAP
0C
3E
0C
7C
CC
CC
CC
CC
CC
CC
7C
ENDCHAR
STARTCHAR Gbreve
ENCODING 286
SWIDTH 602 0
DWIDTH 8 0
BBX 7 14 1 0
BITMAP
44
38
00
00
3C
62
C0
C0
C0
CE
C6
C6
66
3E
ENDCHAR
STARTCHAR gbreve
ENCODING 287
SWIDTH 602 0
DWIDTH 8 0
BBX 6 14 1 -3
BITMAP
44
38
00
7C
CC
CC
CC
CC
CC
CC
7C
0C
0C
78
ENDCHAR
STARTCHAR Idotaccent
ENCODING 304
SWIDTH 602 0
DWIDTH 8 0
BBX 6 14 1 0
BITMAP
30
30
00
00
FC
30
30
30
30
30
30
30
30
FC
ENDCHAR
STARTCHAR dotlessi
ENCODING 305
SWIDTH 602 0
DWIDTH 8 0
BBX 7 8 0 0
BITMAP
78
18
18
18
18
18
18
FE
ENDCHAR
STARTCHAR Lslash
ENCODING 321
SWIDTH 602 0
DWIDTH 8 0
BBX 8 10 0 0
BITMAP
60
60
60
7C
78
60
E0
E0
60
7F
ENDCHAR
STARTCHAR lslash
ENCODING 322
SWIDTH 602 0
DWIDTH 8 0
BBX 7 11 1 0
BITMAP
F0
30
36
3C
38
70
F0
B0
30
30
1E
ENDCHAR
STARTCHAR OE
ENCODING 338
SWIDTH 602 0
DWIDTH 8 0
BBX 7 10 1 0
BITMAP
3E
4C
CC
CC
CE
CC
CC
CC
4C
3E
ENDCHAR
STARTCHAR oe
ENCODING 339
SWIDTH 602 0
DWIDTH 8 0
BBX 8 8 0 0
BITMAP
7E
DB
DB
DF
D8
D8
D8
77
ENDCHAR
STARTCHAR Scedilla
ENCODING 350
SWIDTH 602 0
DWIDTH 8 0
BBX 7 13 1 -3
BITMAP
7C
C2
C0
C0
F8
3C
0E
06
86
7C
10
08
38
ENDCHAR
STARTCHAR scedilla
ENCODING 351
SWIDTH 602 0
DWIDTH 8 0
BBX 6 11 1 -3
BITMAP
78
C4
C0
F0
3C
0C
8C
78
10
08
38
ENDCHAR
STARTCHAR Scaron
ENCODING 352
SWIDTH 602 0
DWIDTH 8 0
BBX 7 14 1 0
BITMAP
6C
38
00
00
7C
C2
C0
C0
F8
3C
0E
06
86
7C
ENDCHAR
STARTCHAR scaron
ENCODING 353
SWIDTH 602 0
DWIDTH 8 0
BBX 6 12 1 0
BITMAP
6C
28
38
00
78
C4
C0
F0
3C
0C
8C
78
ENDCHAR
STARTCHAR Ydieresis
ENCODING 376
SWIDTH 602 0
DWIDTH 8 0
BBX 8 14 0 0
BITMAP
36
36
00
00
C3
66
66
3C
3C
18
18
18
18
18
ENDCHAR
STARTCHAR Zcaron
ENCODING 381
SWIDTH 602 0
DWIDTH 8 0
BBX 7 14 1 0
BITMAP
6C
38
00
00
FE
06
0C
1C
18
30
70
60
C0
FE
ENDCHAR
STARTCHAR zcaron
ENCODING 382
SWIDTH 602 0
DWIDTH 8 0
BBX 6 12 1 0
BITMAP
6C
28
38
00
FC
0C
18
38
70
60
C0
FC
ENDCHAR
STARTCHAR florin
ENCODING 402
SWIDTH 602 0
DWIDTH 8 0
BBX 8 13 0 -3
BITMAP
07
0C
0C
0C
7E
18
18
18
18
18
18
30
E0
ENDCHAR
STARTCHAR circumflex
ENCODING 710
SWIDTH 602 0
DWIDTH 8 0
BBX 5 3 2 9
BITMAP
70
50
D8
ENDCHAR
STARTCHAR caron
ENCODING 711
SWIDTH 602 0
DWIDTH 8 0
BBX 5 3 2 9
BITMAP
D8
50
70
ENDCHAR
STARTCHAR breve
ENCODING 728
SWIDTH 602 0
DWIDTH 8 0
BBX 5 2 2 9
BITMAP
88
70
ENDCHAR
STARTCHAR dotaccent
ENCODING 729
SWIDTH 602 0
DWIDTH 8 0
BBX 2 2 3 9
BITMAP
C0
C0
ENDCHAR
STARTCHAR ring
ENCODING 730
SWIDTH 602 0
DWIDTH 8 0
BBX 4 4 2 9
BITMAP
60
90
90
60
ENDCHAR
STARTCHAR ogonek
ENCODING 731
SWIDTH 602 0
DWIDTH 8 0
BBX 3 3 3 -3
BITMAP
80
80
E0
ENDCHAR
STARTCHAR tilde
ENCODING 732
SWIDTH 602 0
DWIDTH 8 0
BBX 5 2 2 9
BITMAP
E8
B8
ENDCHAR
STARTCHAR hungarumlaut
ENCODING 733
SWIDTH 602 0
DWIDTH 8 0
BBX 6 3 2 9
BITMAP
6C
48
90
ENDCHAR
STARTCHAR Omega
ENCODING 937
SWIDTH 602 0
DWIDTH 8 0
BBX 7 10 1 0
BITMAP
38
7C
EE
C6
C6
C6
C6
C6
6C
EE
ENDCHAR
STARTCHAR pi
ENCODING 960
SWIDTH 602 0
DWIDTH 8 0
BBX 8 8 0 0
BITMAP
FF
FF
66
66
66
66
66
67
ENDCHAR
STARTCHAR endash
ENCODING 8211
SWIDTH 602 0
DWIDTH 8 0
BBX 8 2 0 3
BITMAP
FF
FF
ENDCHAR
STARTCHAR emdash
ENCODING 8212
SWIDTH 602 0
DWIDTH 8 0
BBX 8 2 0 3
BITMAP
FF
FF
ENDCHAR
STARTCHAR quoteleft
ENCODING 8216
SWIDTH 602 0
DWIDTH 8 0
BBX 3 4 3 7
BITMAP
20
40
C0
C0
ENDCHAR
STARTCHAR quoteright
ENCODING 8217
SWIDTH 602 0
DWIDTH 8 0
BBX 3 4 3 7
BITMAP
60
60
40
80
ENDCHAR
STARTCHAR quotesinglbase
ENCODING 8218
SWIDTH 602 0
DWIDTH 8 0
BBX 3 4 2 -1
BITMAP
60
60
40
80
ENDCHAR
STARTCHAR quotedblleft
ENCODING 8220
SWIDTH 602 0
DWIDTH 8 0
BBX 6 4 2 7
BITMAP
24
48
D8
D8
ENDCHAR
STARTCHAR quotedblright
ENCODING 8221
SWIDTH 602 0
DWIDTH 8 0
BBX 6 4 1 7
BITMAP
6C
6C
48
90
ENDCHAR
STARTCHAR quotedblbase
ENCODING 8222
SWIDTH 602 0
DWIDTH 8 0
BBX 6 4 1 -1
BITMAP
6C
6C
48
90
ENDCHAR
STARTCHAR dagger
ENCODING 8224
SWIDTH 602 0
DWIDTH 8 0
BBX 6 11 1 -1
BITMAP
30
30
30
FC
30
30
30
30
30
30
30
ENDCHAR
STARTCHAR daggerdbl
ENCODING 8225
SWIDTH 602 0
DWIDTH 8 0
BBX 6 11 1 -1
BITMAP
30
30
30
FC
30
30
30
FC
30
30
30
ENDCHAR
STARTCHAR bullet
ENCODING 8226
SWIDTH 602 0
DWIDTH 8 0
BBX 5 5 2 3
BITMAP
70
F8
F8
F8
70
ENDCHAR
STARTCHAR ellipsis
ENCODING 8230
SWIDTH 602 0
DWIDTH 8 0
BBX 8 3 0 0
BITMAP
DB
DB
DB
ENDCHAR
STARTCHAR perthousand
ENCODING 8240
SWIDTH 602 0
DWIDTH 8 0
BBX 9 10 0 0
BITMAP
6000
9000
9000
6700
3800
C000
6300
9480
9480
6300
ENDCHAR
STARTCHAR guilsinglleft
ENCODING 8249
SWIDTH 602 0
DWIDTH 8 0
BBX 3 6 2 1
BITMAP
20
60
C0
C0
60
20
ENDCHAR
STARTCHAR guilsinglright
ENCODING 8250
SWIDTH 602 0
DWIDTH 8 0
BBX 3 6 3 1
BITMAP
80
C0
60
60
C0
80
ENDCHAR
STARTCHAR Euro
ENCODING 8364
SWIDTH 602 0
DWIDTH 8 0
BBX 7 10 0 0
BITMAP
1C
32
60
FC
60
F8
60
20
32
1C
ENDCHAR
STARTCHAR trademark
ENCODING 8482
SWIDTH 602 0
DWIDTH 8 0
BBX 8 4 0 6
BITMAP
EF
4F
4D
49
ENDCHAR
STARTCHAR partialdiff
ENCODING 8706
SWIDTH 602 0
DWIDTH 8 0
BBX 6 9 1 0
BITMAP
38
24
04
74
CC
CC
CC
C8
70
ENDCHAR
STARTCHAR Delta
ENCODING 8710
SWIDTH 602 0
DWIDTH 8 0
BBX 9 10 0 0
BITMAP
1C00
1C00
1C00
3600
3600
2200
6300
6300
4100
FF80
ENDCHAR
STARTCHAR product
ENCODING 8719
SWIDTH 602 0
DWIDTH 8 0
BBX 6 13 1 -3
BITMAP
FC
CC
CC
CC
CC
CC
CC
CC
CC
CC
CC
CC
CC
ENDCHAR
STARTCHAR summation
ENCODING 8721
SWIDTH 602 0
DWIDTH 8 0
BBX 7 13 1 -3
BITMAP
FE
E0
60
30
30
18
18
18
30
30
60
E0
FE
ENDCHAR
STARTCHAR minus
ENCODING 8722
SWIDTH 602 0
DWIDTH 8 0
BBX 8 2 1 4
BITMAP
FF
FF
ENDCHAR
STARTCHAR fraction
ENCODING 8725
SWIDTH 602 0
DWIDTH 8 0
BBX 7 12 1 -2
BITMAP
06
0C
0C
0C
18
18
30
30
60
60
60
C0
ENDCHAR
STARTCHAR periodcentered
ENCODING 8729
SWIDTH 602 0
DWIDTH 8 0
BBX 2 3 3 3
BITMAP
C0
C0
C0
ENDCHAR
STARTCHAR radical
ENCODING 8730
SWIDTH 602 0
DWIDTH 8 0
BBX 8 11 0 0
BITMAP
03
02
02
06
06
E4
2C
3C
38
18
18
ENDCHAR
STARTCHAR infinity
ENCODING 8734
SWIDTH 602 0
DWIDTH 8 0
BBX 8 6 0 1
BITMAP
7E
99
99
99
99
76
ENDCHAR
STARTCHAR integral
ENCODING 8747
SWIDTH 602 0
DWIDTH 8 0
BBX 8 13 0 -2
BITMAP
07
0B
08
18
18
18
18
18
18
18
18
D0
E0
ENDCHAR
STARTCHAR approxequal
ENCODING 8776
SWIDTH 602 0
DWIDTH 8 0
BBX 7 6 1 1
BITMAP
72
FE
8E
72
FE
8C
ENDCHAR
STARTCHAR notequal
ENCODING 8800
SWIDTH 602 0
DWIDTH 8 0
BBX 7 10 1 0
BITMAP
06
04
FE
FE
18
30
FE
FE
40
C0
ENDCHAR
STARTCHAR lessequal
ENCODING 8804
SWIDTH 602 0
DWIDTH 8 0
BBX 7 8 1 0
BITMAP
06
3E
F0
F0
3E
06
FE
FE
ENDCHAR
STARTCHAR greaterequal
ENCODING 8805
SWIDTH 602 0
DWIDTH 8 0
BBX 7 8 1 0
BITMAP
C0
F8
1E
1E
F8
C0
FE
FE
ENDCHAR
STARTCHAR lozenge
ENCODING 9674
SWIDTH 602 0
DWIDTH 8 0
BBX 7 15 1 -3
BITMAP
10
10
28
28
44
44
82
82
82
44
44
28
28
10
10
ENDCHAR
STARTCHAR fi
ENCODING 64257
SWIDTH 602 0
DWIDTH 8 0
BBX 7 11 0 0
BITMAP
36
66
60
FE
66
66
66
66
66
66
66
ENDCHAR
STARTCHAR fl
ENCODING 64258
SWIDTH 602 0
DWIDTH 8 0
BBX 7 11 0 0
BITMAP
3E
66
66
F6
66
66
66
66
66
66
66
ENDCHAR
STARTCHAR .notdef
ENCODING -1
SWIDTH 602 0
DWIDTH 8 0
BBX 7 12 1 -2
BITMAP
FE
82
82
82
82
82
82
82
82
82
82
FE
ENDCHAR
STARTCHAR .null
ENCODING -1
SWIDTH 0 0
DWIDTH 0 0
BBX 1 1 0 0
BITMAP
00
ENDCHAR
STARTCHAR nonmarkingreturn
ENCODING -1
SWIDTH 602 0
DWIDTH 8 0
BBX 1 1 0 0
BITMAP
00
ENDCHAR
STARTCHAR c6459
ENCODING -1
SWIDTH 602 0
DWIDTH 8 0
BBX 5 2 2 9
BITMAP
D8
D8
ENDCHAR
STARTCHAR c6460
ENCODING -1
SWIDTH 602 0
DWIDTH 8 0
BBX 3 2 3 9
BITMAP
60
C0
ENDCHAR
STARTCHAR c6461
ENCODING -1
SWIDTH 602 0
DWIDTH 8 0
BBX 5 2 2 9
BITMAP
E8
B8
ENDCHAR
STARTCHAR c6468
ENCODING -1
SWIDTH 602 0
DWIDTH 8 0
BBX 3 2 2 9
BITMAP
C0
60
ENDCHAR
STARTCHAR c6470
ENCODING -1
SWIDTH 602 0
DWIDTH 8 0
BBX 5 2 2 9
BITMAP
70
D8
ENDCHAR
STARTCHAR c6472
ENCODING -1
SWIDTH 602 0
DWIDTH 8 0
BBX 5 2 2 9
BITMAP
D8
70
ENDCHAR
STARTCHAR c6477
ENCODING -1
SWIDTH 602 0
DWIDTH 8 0
BBX 8 3 0 3
BITMAP
03
3C
C0
ENDCHAR
STARTCHAR c6478
ENCODING -1
SWIDTH 602 0
DWIDTH 8 0
BBX 5 6 1 4
BITMAP
30
30
50
90
F8
10
ENDCHAR
STARTCHAR c6475
ENCODING -1
SWIDTH 602 0
DWIDTH 8 0
BBX 5 2 2 9
BITMAP
88
70
ENDCHAR
STARTCHAR c6476
ENCODING -1
SWIDTH 602 0
DWIDTH 8 0
BBX 2 2 3 9
BITMAP
C0
C0
ENDCHAR
ENDFONT
